<svg width="270" height="55" viewBox="0 0 270 55" fill="none" xmlns="http://www.w3.org/2000/svg">
<path d="M73.3771 23.4929V29.2344H58.9013V23.4929H73.3771ZM78.6491 42V10.7273H91.6895C94.0309 10.7273 95.9906 11.0581 97.5684 11.7198C99.1565 12.3815 100.348 13.3079 101.142 14.4989C101.946 15.69 102.348 17.0694 102.348 18.6371C102.348 19.8281 102.099 20.8919 101.6 21.8285C101.101 22.7549 100.414 23.5234 99.5383 24.1342C98.6628 24.745 97.6499 25.1726 96.4996 25.4169V25.7223C97.7619 25.7834 98.9275 26.1244 99.9964 26.7454C101.075 27.3664 101.941 28.2317 102.592 29.3413C103.244 30.4407 103.57 31.7437 103.57 33.2504C103.57 34.93 103.142 36.4316 102.287 37.755C101.432 39.0682 100.195 40.1065 98.5763 40.87C96.9577 41.6233 94.9929 42 92.6821 42H78.6491ZM86.2077 35.9073H90.8802C92.5192 35.9073 93.7255 35.5968 94.4992 34.9759C95.2831 34.3549 95.675 33.4896 95.675 32.38C95.675 31.5758 95.4867 30.8835 95.11 30.3033C94.7333 29.7128 94.1989 29.2598 93.5067 28.9442C92.8144 28.6185 91.9848 28.4556 91.0177 28.4556H86.2077V35.9073ZM86.2077 23.5845H90.3916C91.2162 23.5845 91.9491 23.4471 92.5905 23.1722C93.2318 22.8974 93.7306 22.5004 94.0869 21.9812C94.4534 21.462 94.6366 20.8359 94.6366 20.103C94.6366 19.0544 94.2651 18.2299 93.5219 17.6293C92.7788 17.0286 91.7761 16.7283 90.5138 16.7283H86.2077V23.5845ZM113.816 42.397C112.319 42.397 110.991 42.1476 109.83 41.6488C108.68 41.1398 107.769 40.3763 107.097 39.3583C106.435 38.3301 106.104 37.0424 106.104 35.495C106.104 34.192 106.333 33.0926 106.791 32.1967C107.25 31.3009 107.881 30.573 108.685 30.0131C109.489 29.4532 110.416 29.0308 111.464 28.7457C112.513 28.4505 113.632 28.252 114.823 28.1502C116.157 28.0281 117.231 27.9008 118.045 27.7685C118.86 27.6259 119.45 27.4274 119.817 27.1729C120.193 26.9083 120.382 26.5367 120.382 26.0582V25.9819C120.382 25.198 120.112 24.5923 119.572 24.1648C119.033 23.7372 118.305 23.5234 117.389 23.5234C116.401 23.5234 115.607 23.7372 115.007 24.1648C114.406 24.5923 114.024 25.1828 113.861 25.9361L106.975 25.6918C107.178 24.2666 107.703 22.9941 108.547 21.8743C109.403 20.7443 110.573 19.8587 112.06 19.2173C113.556 18.5658 115.353 18.2401 117.45 18.2401C118.946 18.2401 120.326 18.4182 121.588 18.7745C122.85 19.1206 123.95 19.6296 124.886 20.3015C125.823 20.9632 126.546 21.7776 127.055 22.7447C127.574 23.7118 127.833 24.8163 127.833 26.0582V42H120.809V38.7322H120.626C120.209 39.5263 119.674 40.1982 119.023 40.7479C118.381 41.2976 117.623 41.7099 116.747 41.9847C115.882 42.2596 114.905 42.397 113.816 42.397ZM116.121 37.5107C116.926 37.5107 117.648 37.3478 118.29 37.022C118.941 36.6963 119.46 36.2483 119.847 35.6783C120.234 35.098 120.427 34.4261 120.427 33.6626V31.4332C120.214 31.5452 119.954 31.647 119.649 31.7386C119.353 31.8303 119.028 31.9168 118.671 31.9982C118.315 32.0797 117.949 32.1509 117.572 32.212C117.195 32.2731 116.834 32.3291 116.488 32.38C115.785 32.492 115.185 32.665 114.686 32.8991C114.197 33.1333 113.821 33.4387 113.556 33.8153C113.302 34.1818 113.174 34.6196 113.174 35.1286C113.174 35.9022 113.449 36.4927 113.999 36.8999C114.559 37.3071 115.266 37.5107 116.121 37.5107ZM132.399 42V18.5455H139.652V22.821H139.897C140.324 21.2737 141.021 20.1233 141.989 19.37C142.956 18.6065 144.081 18.2248 145.363 18.2248C145.709 18.2248 146.066 18.2502 146.432 18.3011C146.799 18.3419 147.14 18.408 147.455 18.4996V24.9893C147.099 24.8672 146.631 24.7705 146.05 24.6992C145.48 24.628 144.971 24.5923 144.523 24.5923C143.638 24.5923 142.839 24.7908 142.126 25.1879C141.424 25.5747 140.869 26.1193 140.462 26.8217C140.065 27.514 139.866 28.3284 139.866 29.2649V42H132.399ZM160.228 42.4428C157.755 42.4428 155.632 41.9338 153.861 40.9158C152.1 39.8978 150.746 38.4828 149.799 36.6708C148.852 34.8486 148.379 32.7414 148.379 30.3491C148.379 27.9466 148.852 25.8394 149.799 24.0273C150.756 22.2051 152.115 20.785 153.876 19.767C155.647 18.7491 157.76 18.2401 160.213 18.2401C162.381 18.2401 164.27 18.632 165.878 19.4158C167.497 20.1997 168.759 21.3093 169.665 22.7447C170.581 24.1699 171.065 25.8445 171.116 27.7685H164.138C163.995 26.5672 163.588 25.6256 162.916 24.9435C162.254 24.2615 161.389 23.9205 160.32 23.9205C159.455 23.9205 158.696 24.1648 158.045 24.6534C157.393 25.1319 156.884 25.8445 156.518 26.7912C156.162 27.7277 155.983 28.8883 155.983 30.2727C155.983 31.6572 156.162 32.8279 156.518 33.7848C156.884 34.7315 157.393 35.4492 158.045 35.9379C158.696 36.4163 159.455 36.6555 160.32 36.6555C161.012 36.6555 161.623 36.5079 162.152 36.2127C162.692 35.9175 163.135 35.4848 163.481 34.9148C163.827 34.3345 164.046 33.6321 164.138 32.8075H171.116C171.045 34.7417 170.561 36.4316 169.665 37.8771C168.78 39.3227 167.533 40.4476 165.924 41.2518C164.326 42.0458 162.427 42.4428 160.228 42.4428ZM185.886 42.4428C183.422 42.4428 181.305 41.9389 179.533 40.9311C177.772 39.9131 176.413 38.4981 175.456 36.6861C174.51 34.8639 174.036 32.7515 174.036 30.3491C174.036 27.9364 174.51 25.8241 175.456 24.0121C176.413 22.1899 177.772 20.7749 179.533 19.767C181.305 18.7491 183.422 18.2401 185.886 18.2401C188.349 18.2401 190.462 18.7491 192.223 19.767C193.994 20.7749 195.353 22.1899 196.3 24.0121C197.257 25.8241 197.735 27.9364 197.735 30.3491C197.735 32.7515 197.257 34.8639 196.3 36.6861C195.353 38.4981 193.994 39.9131 192.223 40.9311C190.462 41.9389 188.349 42.4428 185.886 42.4428ZM185.931 36.8082C186.827 36.8082 187.586 36.5334 188.207 35.9837C188.828 35.4339 189.301 34.6705 189.627 33.6932C189.963 32.7159 190.131 31.5859 190.131 30.3033C190.131 29.0002 189.963 27.8601 189.627 26.8828C189.301 25.9055 188.828 25.142 188.207 24.5923C187.586 24.0426 186.827 23.7678 185.931 23.7678C185.005 23.7678 184.221 24.0426 183.58 24.5923C182.949 25.142 182.465 25.9055 182.129 26.8828C181.804 27.8601 181.641 29.0002 181.641 30.3033C181.641 31.5859 181.804 32.7159 182.129 33.6932C182.465 34.6705 182.949 35.4339 183.58 35.9837C184.221 36.5334 185.005 36.8082 185.931 36.8082ZM210.127 42.3359C208.396 42.3359 206.823 41.888 205.408 40.9922C203.993 40.0964 202.863 38.7526 202.018 36.9609C201.173 35.1693 200.751 32.945 200.751 30.288C200.751 27.5292 201.189 25.2591 202.064 23.4776C202.94 21.6961 204.085 20.3778 205.5 19.5227C206.925 18.6676 208.457 18.2401 210.096 18.2401C211.328 18.2401 212.381 18.4538 213.257 18.8814C214.132 19.2988 214.855 19.8383 215.425 20.5C215.995 21.1617 216.428 21.8488 216.723 22.5614H216.876V10.7273H224.343V42H216.952V38.1978H216.723C216.408 38.9206 215.96 39.5975 215.379 40.2287C214.799 40.8598 214.071 41.3688 213.196 41.7557C212.331 42.1425 211.307 42.3359 210.127 42.3359ZM212.722 36.5181C213.628 36.5181 214.402 36.2636 215.044 35.7546C215.685 35.2354 216.179 34.5076 216.525 33.571C216.871 32.6345 217.044 31.535 217.044 30.2727C217.044 28.9901 216.871 27.8855 216.525 26.9592C216.189 26.0328 215.695 25.3202 215.044 24.8214C214.402 24.3226 213.628 24.0732 212.722 24.0732C211.796 24.0732 211.012 24.3277 210.371 24.8366C209.73 25.3456 209.241 26.0633 208.905 26.9897C208.579 27.9161 208.416 29.0104 208.416 30.2727C208.416 31.535 208.584 32.6345 208.92 33.571C209.256 34.5076 209.74 35.2354 210.371 35.7546C211.012 36.2636 211.796 36.5181 212.722 36.5181ZM240.029 42.4428C237.575 42.4428 235.458 41.9593 233.677 40.9922C231.905 40.0149 230.541 38.6254 229.584 36.8235C228.638 35.0115 228.164 32.8584 228.164 30.3643C228.164 27.9415 228.643 25.8241 229.6 24.0121C230.556 22.1899 231.905 20.7749 233.646 19.767C235.387 18.7491 237.438 18.2401 239.8 18.2401C241.469 18.2401 242.996 18.4996 244.381 19.0188C245.765 19.538 246.961 20.3066 247.969 21.3246C248.977 22.3426 249.761 23.5998 250.321 25.0962C250.881 26.5825 251.161 28.2876 251.161 30.2116V32.0746H230.775V27.7379H244.213C244.203 26.9439 244.014 26.2364 243.648 25.6154C243.281 24.9944 242.777 24.5109 242.136 24.1648C241.505 23.8085 240.777 23.6303 239.953 23.6303C239.118 23.6303 238.37 23.8187 237.708 24.1953C237.046 24.5618 236.522 25.0657 236.135 25.707C235.748 26.3382 235.545 27.0559 235.524 27.8601V32.2731C235.524 33.23 235.713 34.0698 236.089 34.7926C236.466 35.5052 237 36.06 237.693 36.457C238.385 36.854 239.209 37.0526 240.166 37.0526C240.828 37.0526 241.429 36.9609 241.968 36.7777C242.508 36.5945 242.971 36.3247 243.358 35.9684C243.745 35.6121 244.035 35.1744 244.228 34.6552L251.084 34.8537C250.799 36.3909 250.173 37.7295 249.206 38.8697C248.249 39.9996 246.992 40.8802 245.434 41.5114C243.877 42.1323 242.075 42.4428 240.029 42.4428Z" fill="#3056D3"/>
<path d="M49.8284 26.5C49.8284 38.6574 40.1219 48.5 28.1642 48.5C16.2064 48.5 6.5 38.6574 6.5 26.5C6.5 14.3426 16.2064 4.5 28.1642 4.5C40.1219 4.5 49.8284 14.3426 49.8284 26.5Z" fill="#3056D3" stroke="white"/>
<path d="M48.8433 26C48.8433 36.7767 40.2394 45.5 29.6418 45.5C19.0442 45.5 10.4403 36.7767 10.4403 26C10.4403 15.2233 19.0442 6.5 29.6418 6.5C40.2394 6.5 48.8433 15.2233 48.8433 26Z" fill="white" stroke="white"/>
<path d="M45.8881 26C45.8881 35.6721 38.1663 43.5 28.6568 43.5C19.1472 43.5 11.4254 35.6721 11.4254 26C11.4254 16.3279 19.1472 8.5 28.6568 8.5C38.1663 8.5 45.8881 16.3279 45.8881 26Z" fill="#3056D3" stroke="#3056D3"/>
<path d="M29.0764 40.4943C26.3378 40.4943 23.9742 39.9545 21.9855 38.875C20.0083 37.7841 18.4855 36.233 17.4174 34.2216C16.3605 32.1989 15.8321 29.7955 15.8321 27.0114C15.8321 24.3068 16.3662 21.9432 17.4344 19.9205C18.5026 17.8864 20.0083 16.3068 21.9514 15.1818C23.8946 14.0455 26.1844 13.4773 28.8208 13.4773C30.6844 13.4773 32.3889 13.767 33.9344 14.3466C35.4799 14.9261 36.8151 15.7841 37.9401 16.9205C39.0651 18.0568 39.9401 19.4602 40.5651 21.1307C41.1901 22.7898 41.5026 24.6932 41.5026 26.8409V28.9205H18.7469V24.0795H33.7469C33.7355 23.1932 33.5253 22.4034 33.1162 21.7102C32.7071 21.017 32.1446 20.4773 31.4287 20.0909C30.7242 19.6932 29.9117 19.4943 28.9912 19.4943C28.0594 19.4943 27.2242 19.7045 26.4855 20.125C25.7469 20.5341 25.1617 21.0966 24.7299 21.8125C24.298 22.517 24.0708 23.3182 24.048 24.2159V29.142C24.048 30.2102 24.2583 31.1477 24.6787 31.9545C25.0992 32.75 25.6958 33.3693 26.4685 33.8125C27.2412 34.2557 28.1617 34.4773 29.2299 34.4773C29.9685 34.4773 30.6389 34.375 31.2412 34.1705C31.8435 33.9659 32.3605 33.6648 32.7924 33.267C33.2242 32.8693 33.548 32.3807 33.7639 31.8011L41.4174 32.0227C41.0992 33.7386 40.4003 35.233 39.3208 36.5057C38.2526 37.767 36.8492 38.75 35.1105 39.4545C33.3719 40.1477 31.3605 40.4943 29.0764 40.4943Z" fill="white"/>
<path d="M199 30C199 37.0993 193.415 42.8333 186.5 42.8333C179.585 42.8333 174 37.0993 174 30C174 22.9007 179.585 17.1667 186.5 17.1667C193.415 17.1667 199 22.9007 199 30Z" fill="#EF8522"/>
<path d="M193.048 17.8846L188.583 16L182.333 27.3077L187.393 30.5385L184.417 37L181.143 44L185.905 37.8077L190.071 32.1538V32.4231L191.857 30.2692L187.69 27.8462L193.048 17.8846Z" fill="#E82130"/>
</svg>
