<svg width="45" height="45" viewBox="0 0 45 45" fill="none" xmlns="http://www.w3.org/2000/svg">
<path d="M43.8284 22.5C43.8284 34.6574 34.1219 44.5 22.1642 44.5C10.2064 44.5 0.5 34.6574 0.5 22.5C0.5 10.3426 10.2064 0.5 22.1642 0.5C34.1219 0.5 43.8284 10.3426 43.8284 22.5Z" fill="#3056D3" stroke="white"/>
<path d="M42.8433 22C42.8433 32.7767 34.2394 41.5 23.6418 41.5C13.0442 41.5 4.44031 32.7767 4.44031 22C4.44031 11.2233 13.0442 2.5 23.6418 2.5C34.2394 2.5 42.8433 11.2233 42.8433 22Z" fill="white" stroke="white"/>
<path d="M39.8881 22C39.8881 31.6721 32.1663 39.5 22.6568 39.5C13.1472 39.5 5.42542 31.6721 5.42542 22C5.42542 12.3279 13.1472 4.5 22.6568 4.5C32.1663 4.5 39.8881 12.3279 39.8881 22Z" fill="#3056D3" stroke="#3056D3"/>
<path d="M23.0764 36.4943C20.3378 36.4943 17.9742 35.9545 15.9855 34.875C14.0083 33.7841 12.4855 32.233 11.4174 30.2216C10.3605 28.1989 9.83213 25.7955 9.83213 23.0114C9.83213 20.3068 10.3662 17.9432 11.4344 15.9205C12.5026 13.8864 14.0083 12.3068 15.9514 11.1818C17.8946 10.0455 20.1844 9.47727 22.8208 9.47727C24.6844 9.47727 26.3889 9.76705 27.9344 10.3466C29.4799 10.9261 30.8151 11.7841 31.9401 12.9205C33.0651 14.0568 33.9401 15.4602 34.5651 17.1307C35.1901 18.7898 35.5026 20.6932 35.5026 22.8409V24.9205H12.7469V20.0795H27.7469C27.7355 19.1932 27.5253 18.4034 27.1162 17.7102C26.7071 17.017 26.1446 16.4773 25.4287 16.0909C24.7242 15.6932 23.9117 15.4943 22.9912 15.4943C22.0594 15.4943 21.2242 15.7045 20.4855 16.125C19.7469 16.5341 19.1617 17.0966 18.7299 17.8125C18.298 18.517 18.0708 19.3182 18.048 20.2159V25.142C18.048 26.2102 18.2583 27.1477 18.6787 27.9545C19.0992 28.75 19.6958 29.3693 20.4685 29.8125C21.2412 30.2557 22.1617 30.4773 23.2299 30.4773C23.9685 30.4773 24.6389 30.375 25.2412 30.1705C25.8435 29.9659 26.3605 29.6648 26.7924 29.267C27.2242 28.8693 27.548 28.3807 27.7639 27.8011L35.4174 28.0227C35.0992 29.7386 34.4003 31.233 33.3208 32.5057C32.2526 33.767 30.8492 34.75 29.1105 35.4545C27.3719 36.1477 25.3605 36.4943 23.0764 36.4943Z" fill="white"/>
</svg>
